<svg xmlns="http://www.w3.org/2000/svg" xmlns:xlink="http://www.w3.org/1999/xlink" viewBox="0 0 13.01 13.01"><defs><style>.cls-1{isolation:isolate;}.cls-2{fill:url(#linear-gradient);}.cls-3{opacity:0.5;mix-blend-mode:multiply;}.cls-4,.cls-48,.cls-5{opacity:0;}.cls-5{fill:#f2f2f2;}.cls-54,.cls-6{fill:#efefef;}.cls-6{opacity:0.02;}.cls-7{fill:#ebebeb;opacity:0.05;}.cls-8{fill:#e8e8e8;opacity:0.07;}.cls-9{fill:#e4e4e4;opacity:0.1;}.cls-10{fill:#e1e1e1;opacity:0.12;}.cls-11{fill:#dedede;opacity:0.15;}.cls-12,.cls-62{fill:#dadada;}.cls-12{opacity:0.17;}.cls-13{fill:#d7d7d7;opacity:0.2;}.cls-14{fill:#d3d3d3;opacity:0.22;}.cls-15,.cls-66{fill:#d0d0d0;}.cls-15{opacity:0.24;}.cls-16{fill:#ccc;opacity:0.27;}.cls-17{fill:#c9c9c9;opacity:0.29;}.cls-18,.cls-70{fill:#c6c6c6;}.cls-18{opacity:0.32;}.cls-19{fill:#c2c2c2;opacity:0.34;}.cls-20{fill:#bfbfbf;opacity:0.37;}.cls-21,.cls-74{fill:#bbb;}.cls-21{opacity:0.39;}.cls-22{fill:#b8b8b8;opacity:0.41;}.cls-23{fill:#b5b5b5;opacity:0.44;}.cls-24,.cls-78{fill:#b1b1b1;}.cls-24{opacity:0.46;}.cls-25{fill:#aeaeae;opacity:0.49;}.cls-26{fill:#aaa;opacity:0.51;}.cls-27{fill:#a7a7a7;opacity:0.54;}.cls-28{fill:#a3a3a3;opacity:0.56;}.cls-29{fill:#a0a0a0;opacity:0.59;}.cls-30{fill:#9d9d9d;opacity:0.61;}.cls-31{fill:#999;opacity:0.63;}.cls-32,.cls-88{fill:#969696;}.cls-32{opacity:0.66;}.cls-33{fill:#929292;opacity:0.68;}.cls-34{fill:#8f8f8f;opacity:0.71;}.cls-35,.cls-92{fill:#8c8c8c;}.cls-35{opacity:0.73;}.cls-36{fill:#888;opacity:0.76;}.cls-37{fill:#858585;opacity:0.78;}.cls-38{fill:#818181;opacity:0.8;}.cls-39{fill:#7e7e7e;opacity:0.83;}.cls-40{fill:#7a7a7a;opacity:0.85;}.cls-100,.cls-41{fill:#777;}.cls-41{opacity:0.88;}.cls-42{fill:#747474;opacity:0.9;}.cls-43{fill:#707070;opacity:0.93;}.cls-104,.cls-44{fill:#6d6d6d;}.cls-44{opacity:0.95;}.cls-45{fill:#696969;opacity:0.98;}.cls-46{fill:#666;}.cls-47,.cls-48{fill:#fff;}.cls-49,.cls-50{opacity:0.03;}.cls-50{fill:#fafafa;}.cls-51,.cls-52{opacity:0.06;}.cls-52{fill:#f5f5f5;}.cls-53,.cls-54{opacity:0.1;}.cls-55,.cls-56{opacity:0.13;}.cls-56{fill:#eaeaea;}.cls-57,.cls-58{opacity:0.16;}.cls-58{fill:#e5e5e5;}.cls-59,.cls-60{opacity:0.19;}.cls-60{fill:#e0e0e0;}.cls-61,.cls-62{opacity:0.23;}.cls-63{opacity:0.26;}.cls-64{fill:#d5d5d5;opacity:0.26;}.cls-65{opacity:0.29;}.cls-66{opacity:0.29;}.cls-67{opacity:0.32;}.cls-68{fill:#cbcbcb;opacity:0.32;}.cls-69{opacity:0.35;}.cls-70{opacity:0.35;}.cls-71{opacity:0.39;}.cls-72{fill:silver;opacity:0.39;}.cls-73{opacity:0.42;}.cls-74{opacity:0.42;}.cls-75,.cls-76{opacity:0.45;}.cls-76{fill:#b6b6b6;}.cls-77,.cls-78{opacity:0.48;}.cls-79,.cls-80{opacity:0.52;}.cls-80{fill:#ababab;}.cls-81,.cls-82{opacity:0.55;}.cls-82{fill:#a6a6a6;}.cls-83,.cls-84{opacity:0.58;}.cls-84{fill:#a1a1a1;}.cls-85,.cls-86{opacity:0.61;}.cls-86{fill:#9c9c9c;}.cls-87,.cls-88{opacity:0.65;}.cls-89,.cls-90{opacity:0.68;}.cls-90{fill:#919191;}.cls-91,.cls-92{opacity:0.71;}.cls-93,.cls-94{opacity:0.74;}.cls-94{fill:#878787;}.cls-95{opacity:0.77;}.cls-96{fill:#828282;opacity:0.77;}.cls-97{opacity:0.81;}.cls-98{fill:#7c7c7c;opacity:0.81;}.cls-100,.cls-99{opacity:0.84;}.cls-101,.cls-102{opacity:0.87;}.cls-102{fill:#727272;}.cls-103,.cls-104{opacity:0.9;}.cls-105,.cls-106{opacity:0.94;}.cls-106{fill:#676767;}.cls-107,.cls-108{opacity:0.97;}.cls-108{fill:#626262;}.cls-109{fill:#5d5d5d;}</style><linearGradient id="linear-gradient" x1="-8.92" y1="-8.01" x2="23.49" y2="24.33" gradientUnits="userSpaceOnUse"><stop offset="0" stop-color="lime"/><stop offset="0.27" stop-color="lime"/><stop offset="0.77" stop-color="#007600"/><stop offset="1" stop-color="#003c00"/></linearGradient></defs><title>Artboard 1Parat</title><g class="cls-1"><g id="Layer_1" data-name="Layer 1"><rect class="cls-2" x="-6.13" y="-5.24" width="25" height="25"/><g class="cls-3"><g class="cls-4"><path class="cls-5" d="M2.44,2.13a.32.32,0,0,0-.32.31V13.57a.32.32,0,0,0,.32.32H13.56a.32.32,0,0,0,.31-.32V2.44a.32.32,0,0,0-.31-.31ZM13.56,14.51H2.44a1,1,0,0,1-.95-.95V2.44a1,1,0,0,1,.95-.95H13.56a1,1,0,0,1,.95.95V13.57A1,1,0,0,1,13.56,14.51Z"/></g><path class="cls-6" d="M2.41,2.09a.32.32,0,0,0-.32.31V13.53a.32.32,0,0,0,.32.31H13.53a.31.31,0,0,0,.31-.31V2.41a.32.32,0,0,0-.31-.31ZM13.53,14.48H2.41a1,1,0,0,1-.95-.95V2.41a1,1,0,0,1,.95-.94H13.53a1,1,0,0,1,.95.94V13.53A1,1,0,0,1,13.53,14.48Z"/><path class="cls-7" d="M2.37,2.06a.32.32,0,0,0-.32.32V13.49a.32.32,0,0,0,.32.32H13.49a.32.32,0,0,0,.31-.32V2.37a.32.32,0,0,0-.31-.32ZM13.49,14.44H2.37a1,1,0,0,1-.95-.95V2.37a1,1,0,0,1,.95-.95H13.49a1,1,0,0,1,.95.95V13.49A1,1,0,0,1,13.49,14.44Z"/><path class="cls-8" d="M2.33,2A.32.32,0,0,0,2,2.33V13.46a.32.32,0,0,0,.32.32H13.46a.32.32,0,0,0,.31-.32V2.33A.32.32,0,0,0,13.46,2ZM13.46,14.4H2.33a1,1,0,0,1-.95-.95V2.33a1,1,0,0,1,.95-.95H13.46a1,1,0,0,1,.95.95V13.46A1,1,0,0,1,13.46,14.4Z"/><path class="cls-9" d="M2.3,2A.32.32,0,0,0,2,2.3V13.42a.32.32,0,0,0,.32.32H13.42a.32.32,0,0,0,.31-.32V2.3A.32.32,0,0,0,13.42,2ZM13.42,14.37H2.3a1,1,0,0,1-.95-.95V2.3a1,1,0,0,1,.95-.95H13.42a1,1,0,0,1,.95.95V13.42A1,1,0,0,1,13.42,14.37Z"/><path class="cls-10" d="M2.26,1.95a.32.32,0,0,0-.32.31V13.38a.32.32,0,0,0,.32.32H13.38a.32.32,0,0,0,.31-.32V2.26a.32.32,0,0,0-.31-.31ZM13.38,14.33H2.26a1,1,0,0,1-.95-.95V2.26a1,1,0,0,1,.95-.95H13.38a1,1,0,0,1,.95.95V13.38A1,1,0,0,1,13.38,14.33Z"/><path class="cls-11" d="M2.22,1.91a.32.32,0,0,0-.32.31V13.35a.32.32,0,0,0,.32.32H13.35a.32.32,0,0,0,.31-.32V2.22a.32.32,0,0,0-.31-.31ZM13.35,14.29H2.22a1,1,0,0,1-.95-.95V2.22a1,1,0,0,1,.95-.95H13.35a1,1,0,0,1,.95.95V13.35A1,1,0,0,1,13.35,14.29Z"/><path class="cls-12" d="M2.19,1.87a.32.32,0,0,0-.31.31V13.31a.31.31,0,0,0,.31.31H13.31a.31.31,0,0,0,.31-.31V2.19a.32.32,0,0,0-.31-.31ZM13.31,14.26H2.19a1,1,0,0,1-.95-.95V2.19a1,1,0,0,1,.95-.95H13.31a1,1,0,0,1,.95.95V13.31A1,1,0,0,1,13.31,14.26Z"/><path class="cls-13" d="M2.15,1.84a.32.32,0,0,0-.32.31V13.27a.32.32,0,0,0,.32.32H13.27a.31.31,0,0,0,.32-.32V2.15a.32.32,0,0,0-.32-.31ZM13.27,14.22H2.15a1,1,0,0,1-.95-.95V2.15a1,1,0,0,1,.95-.95H13.27a1,1,0,0,1,.95.95V13.27A1,1,0,0,1,13.27,14.22Z"/><path class="cls-14" d="M2.11,1.8a.32.32,0,0,0-.32.31V13.24a.31.31,0,0,0,.32.32H13.24a.31.31,0,0,0,.31-.32V2.11a.32.32,0,0,0-.31-.31ZM13.24,14.18H2.11a1,1,0,0,1-.95-.95V2.11a1,1,0,0,1,.95-.95H13.24a1,1,0,0,1,.95.95V13.24A1,1,0,0,1,13.24,14.18Z"/><path class="cls-15" d="M2.08,1.76a.32.32,0,0,0-.32.31V13.2a.31.31,0,0,0,.32.32H13.2a.31.31,0,0,0,.31-.32V2.08a.32.32,0,0,0-.31-.31ZM13.2,14.15H2.08a1,1,0,0,1-.95-.95V2.08a1,1,0,0,1,.95-.95H13.2a1,1,0,0,1,.95.95V13.2A1,1,0,0,1,13.2,14.15Z"/><path class="cls-16" d="M2,1.73A.32.32,0,0,0,1.73,2V13.16a.32.32,0,0,0,.32.32H13.16a.32.32,0,0,0,.31-.32V2a.32.32,0,0,0-.31-.32ZM13.16,14.11H2a1,1,0,0,1-.95-.95V2A1,1,0,0,1,2,1.1H13.16a1,1,0,0,1,.95.95V13.16A1,1,0,0,1,13.16,14.11Z"/><path class="cls-17" d="M2,1.69A.32.32,0,0,0,1.69,2V13.13a.32.32,0,0,0,.32.32H13.13a.32.32,0,0,0,.31-.32V2a.32.32,0,0,0-.31-.31ZM13.13,14.07H2a1,1,0,0,1-.95-.95V2A1,1,0,0,1,2,1.06H13.13a1,1,0,0,1,.95.95V13.13A1,1,0,0,1,13.13,14.07Z"/><path class="cls-18" d="M2,1.65A.32.32,0,0,0,1.65,2V13.09a.32.32,0,0,0,.32.32H13.09a.31.31,0,0,0,.31-.32V2a.32.32,0,0,0-.31-.31ZM13.09,14H2A1,1,0,0,1,1,13.09V2A1,1,0,0,1,2,1H13.09A1,1,0,0,1,14,2V13.09A1,1,0,0,1,13.09,14Z"/><path class="cls-19" d="M1.93,1.62a.32.32,0,0,0-.32.32V13.05a.32.32,0,0,0,.32.32H13.05a.32.32,0,0,0,.31-.32V1.93a.32.32,0,0,0-.31-.32ZM13.05,14H1.93A1,1,0,0,1,1,13.05V1.93A1,1,0,0,1,1.93,1H13.05a1,1,0,0,1,.95.95V13.05A1,1,0,0,1,13.05,14Z"/><path class="cls-20" d="M1.9,1.58a.32.32,0,0,0-.32.31V13a.32.32,0,0,0,.32.32H13a.32.32,0,0,0,.31-.32V1.9A.32.32,0,0,0,13,1.58ZM13,14H1.9A1,1,0,0,1,.95,13V1.9A1,1,0,0,1,1.9,1H13A1,1,0,0,1,14,1.9V13A1,1,0,0,1,13,14Z"/><path class="cls-21" d="M1.86,1.54a.32.32,0,0,0-.32.31V13a.32.32,0,0,0,.32.32H13A.32.32,0,0,0,13.3,13V1.86A.32.32,0,0,0,13,1.54ZM13,13.93H1.86A1,1,0,0,1,.91,13V1.86A1,1,0,0,1,1.86.91H13a1,1,0,0,1,.95.95V13A1,1,0,0,1,13,13.93Z"/><path class="cls-22" d="M1.82,1.51a.32.32,0,0,0-.32.31V12.95a.31.31,0,0,0,.32.31H12.94a.31.31,0,0,0,.31-.31V1.82a.32.32,0,0,0-.31-.31ZM12.94,13.89H1.82a1,1,0,0,1-.95-.95V1.82A1,1,0,0,1,1.82.88H12.94a1,1,0,0,1,.95.95V12.95A1,1,0,0,1,12.94,13.89Z"/><path class="cls-23" d="M1.79,1.47a.32.32,0,0,0-.32.32V12.91a.32.32,0,0,0,.32.32H12.91a.32.32,0,0,0,.31-.32V1.79a.32.32,0,0,0-.31-.32ZM12.91,13.85H1.79a1,1,0,0,1-.95-.95V1.79A1,1,0,0,1,1.79.84H12.91a1,1,0,0,1,.95.95V12.91A1,1,0,0,1,12.91,13.85Z"/><path class="cls-24" d="M1.75,1.44a.32.32,0,0,0-.32.31V12.87a.32.32,0,0,0,.32.32H12.87a.32.32,0,0,0,.32-.32V1.75a.32.32,0,0,0-.32-.31ZM12.87,13.82H1.75a1,1,0,0,1-.95-.95V1.75A1,1,0,0,1,1.75.8H12.87a1,1,0,0,1,.95.95V12.87A1,1,0,0,1,12.87,13.82Z"/><path class="cls-25" d="M1.71,1.4a.32.32,0,0,0-.32.31V12.83a.32.32,0,0,0,.32.32H12.83a.32.32,0,0,0,.31-.32V1.71a.32.32,0,0,0-.31-.31ZM12.83,13.78H1.71a1,1,0,0,1-.95-.95V1.71A1,1,0,0,1,1.71.77H12.83a1,1,0,0,1,.95.95V12.83A1,1,0,0,1,12.83,13.78Z"/><path class="cls-26" d="M1.68,1.36a.32.32,0,0,0-.32.31V12.8a.32.32,0,0,0,.32.32H12.8a.32.32,0,0,0,.31-.32V1.68a.32.32,0,0,0-.31-.31ZM12.8,13.74H1.68a1,1,0,0,1-.95-.95V1.68A1,1,0,0,1,1.68.73H12.8a1,1,0,0,1,.95.95V12.8A1,1,0,0,1,12.8,13.74Z"/><path class="cls-27" d="M1.64,1.33a.32.32,0,0,0-.32.31V12.76a.32.32,0,0,0,.32.32H12.76a.32.32,0,0,0,.31-.32V1.64a.32.32,0,0,0-.31-.31ZM12.76,13.71H1.64a1,1,0,0,1-.95-.95V1.64A1,1,0,0,1,1.64.69H12.76a1,1,0,0,1,.95.95V12.76A1,1,0,0,1,12.76,13.71Z"/><path class="cls-28" d="M1.6,1.29a.32.32,0,0,0-.32.31V12.73A.32.32,0,0,0,1.6,13H12.73a.31.31,0,0,0,.31-.32V1.6a.32.32,0,0,0-.31-.31ZM12.73,13.67H1.6a1,1,0,0,1-.95-.95V1.6A1,1,0,0,1,1.6.66H12.73a1,1,0,0,1,.95.95V12.73A1,1,0,0,1,12.73,13.67Z"/><path class="cls-29" d="M1.57,1.25a.32.32,0,0,0-.32.31V12.69a.31.31,0,0,0,.32.31H12.69a.31.31,0,0,0,.31-.31V1.57a.32.32,0,0,0-.31-.31ZM12.69,13.63H1.57a1,1,0,0,1-.95-.95V1.57A1,1,0,0,1,1.57.62H12.69a1,1,0,0,1,.95.95V12.69A1,1,0,0,1,12.69,13.63Z"/><path class="cls-30" d="M1.53,1.22a.32.32,0,0,0-.32.31V12.65a.32.32,0,0,0,.32.32H12.65a.31.31,0,0,0,.31-.32V1.53a.32.32,0,0,0-.31-.31ZM12.65,13.6H1.53a1,1,0,0,1-.95-.95V1.53A1,1,0,0,1,1.53.58H12.65a1,1,0,0,1,.95.95V12.65A1,1,0,0,1,12.65,13.6Z"/><path class="cls-31" d="M1.49,1.18a.32.32,0,0,0-.32.31V12.62a.32.32,0,0,0,.32.32H12.62a.31.31,0,0,0,.31-.32V1.49a.32.32,0,0,0-.31-.31ZM12.62,13.56H1.49a1,1,0,0,1-.95-.95V1.49A1,1,0,0,1,1.49.55H12.62a1,1,0,0,1,.95.95V12.62A1,1,0,0,1,12.62,13.56Z"/><path class="cls-32" d="M1.46,1.14a.32.32,0,0,0-.32.32V12.58a.32.32,0,0,0,.32.32H12.58a.31.31,0,0,0,.31-.32V1.46a.32.32,0,0,0-.31-.32ZM12.58,13.53H1.46a1,1,0,0,1-.95-.95V1.46A1,1,0,0,1,1.46.51H12.58a1,1,0,0,1,.95.95V12.58A1,1,0,0,1,12.58,13.53Z"/><path class="cls-33" d="M1.42,1.11a.32.32,0,0,0-.32.31V12.54a.32.32,0,0,0,.32.32H12.54a.31.31,0,0,0,.31-.32V1.42a.32.32,0,0,0-.31-.31ZM12.54,13.49H1.42a1,1,0,0,1-.95-.95V1.42A1,1,0,0,1,1.42.47H12.54a1,1,0,0,1,.95.95V12.54A1,1,0,0,1,12.54,13.49Z"/><path class="cls-34" d="M1.38,1.07a.32.32,0,0,0-.32.31V12.51a.32.32,0,0,0,.32.32H12.51a.32.32,0,0,0,.31-.32V1.38a.32.32,0,0,0-.31-.31ZM12.51,13.45H1.38a1,1,0,0,1-.95-.95V1.38A1,1,0,0,1,1.38.44H12.51a1,1,0,0,1,.95.95V12.51A1,1,0,0,1,12.51,13.45Z"/><path class="cls-35" d="M1.35,1A.32.32,0,0,0,1,1.35V12.47a.32.32,0,0,0,.32.32H12.47a.32.32,0,0,0,.32-.32V1.35A.32.32,0,0,0,12.47,1ZM12.47,13.42H1.35a1,1,0,0,1-.95-.95V1.35A1,1,0,0,1,1.35.4H12.47a1,1,0,0,1,.95.95V12.47A1,1,0,0,1,12.47,13.42Z"/><path class="cls-36" d="M1.31,1A.32.32,0,0,0,1,1.31V12.43a.32.32,0,0,0,.32.32H12.43a.31.31,0,0,0,.31-.32V1.31A.32.32,0,0,0,12.43,1ZM12.43,13.38H1.31a1,1,0,0,1-.95-.95V1.31A1,1,0,0,1,1.31.37H12.43a1,1,0,0,1,.95.95V12.43A1,1,0,0,1,12.43,13.38Z"/><path class="cls-37" d="M1.28,1A.32.32,0,0,0,1,1.28V12.4a.31.31,0,0,0,.32.32H12.4a.31.31,0,0,0,.31-.32V1.28A.32.32,0,0,0,12.4,1ZM12.4,13.34H1.28a1,1,0,0,1-.95-.95V1.28A1,1,0,0,1,1.28.33H12.4a1,1,0,0,1,.95.95V12.4A1,1,0,0,1,12.4,13.34Z"/><path class="cls-38" d="M1.24.92a.32.32,0,0,0-.32.31V12.36a.32.32,0,0,0,.32.32H12.36a.31.31,0,0,0,.31-.32V1.24a.32.32,0,0,0-.31-.31ZM12.36,13.31H1.24a1,1,0,0,1-.95-.95V1.24A1,1,0,0,1,1.24.29H12.36a1,1,0,0,1,.95.95V12.36A1,1,0,0,1,12.36,13.31Z"/><path class="cls-39" d="M1.2.89a.32.32,0,0,0-.32.31V12.32a.32.32,0,0,0,.32.32H12.32a.31.31,0,0,0,.31-.32V1.2a.32.32,0,0,0-.31-.31ZM12.32,13.27H1.2a1,1,0,0,1-.95-.95V1.2A1,1,0,0,1,1.2.26H12.32a1,1,0,0,1,.95.95V12.32A1,1,0,0,1,12.32,13.27Z"/><path class="cls-40" d="M1.17.85a.32.32,0,0,0-.32.32V12.29a.32.32,0,0,0,.32.31H12.29a.31.31,0,0,0,.31-.31V1.17a.32.32,0,0,0-.31-.32ZM12.29,13.23H1.17a1,1,0,0,1-.95-.94V1.17A1,1,0,0,1,1.17.22H12.29a1,1,0,0,1,.95.95V12.29A1,1,0,0,1,12.29,13.23Z"/><path class="cls-41" d="M1.13.81a.32.32,0,0,0-.32.31V12.25a.32.32,0,0,0,.32.32H12.25a.31.31,0,0,0,.31-.32V1.13a.32.32,0,0,0-.31-.31ZM12.25,13.2H1.13a1,1,0,0,1-.95-.95V1.13A1,1,0,0,1,1.13.18H12.25a1,1,0,0,1,.95.95V12.25A1,1,0,0,1,12.25,13.2Z"/><path class="cls-42" d="M1.09.78a.32.32,0,0,0-.32.31V12.21a.32.32,0,0,0,.32.32H12.21a.31.31,0,0,0,.32-.32V1.09a.32.32,0,0,0-.32-.31ZM12.21,13.16H1.09a1,1,0,0,1-.95-.95V1.09A1,1,0,0,1,1.09.15H12.21a1,1,0,0,1,.95.95V12.21A1,1,0,0,1,12.21,13.16Z"/><path class="cls-43" d="M1.06.74a.32.32,0,0,0-.32.31V12.18a.32.32,0,0,0,.32.32H12.18a.31.31,0,0,0,.31-.32V1.06a.32.32,0,0,0-.31-.31ZM12.18,13.12H1.06a1,1,0,0,1-.95-.95V1.06A1,1,0,0,1,1.06.11H12.18a1,1,0,0,1,.95.95V12.18A1,1,0,0,1,12.18,13.12Z"/><path class="cls-44" d="M1,.71A.32.32,0,0,0,.7,1V12.14a.32.32,0,0,0,.32.32H12.14a.31.31,0,0,0,.31-.32V1a.32.32,0,0,0-.31-.31ZM12.14,13.09H1a1,1,0,0,1-.95-.95V1A1,1,0,0,1,1,.07H12.14a1,1,0,0,1,.95.95V12.14A1,1,0,0,1,12.14,13.09Z"/><path class="cls-45" d="M1,.67A.32.32,0,0,0,.67,1V12.11a.32.32,0,0,0,.32.31H12.11a.31.31,0,0,0,.31-.31V1a.32.32,0,0,0-.31-.31ZM12.11,13H1A1,1,0,0,1,0,12.11V1A1,1,0,0,1,1,0H12.11a1,1,0,0,1,.95.95V12.11A1,1,0,0,1,12.11,13Z"/><path class="cls-46" d="M.95.63A.32.32,0,0,0,.63.95V12.07a.32.32,0,0,0,.32.32H12.07a.31.31,0,0,0,.31-.32V.95a.32.32,0,0,0-.31-.31ZM12.07,13H.95A1,1,0,0,1,0,12.07V.95A1,1,0,0,1,.95,0H12.07A1,1,0,0,1,13,.95V12.07A1,1,0,0,1,12.07,13Z"/></g><path class="cls-47" d="M12.07,13H.95A1,1,0,0,1,0,12.07V.95A1,1,0,0,1,.95,0H12.07A1,1,0,0,1,13,.95V12.07A1,1,0,0,1,12.07,13ZM.95.63A.32.32,0,0,0,.63.95V12.07a.32.32,0,0,0,.32.32H12.07a.31.31,0,0,0,.31-.32V.95a.32.32,0,0,0-.31-.31Z"/><g class="cls-3"><g class="cls-4"><path class="cls-48" d="M4.42,6.78a.35.35,0,0,0-.35.35V8.81a.35.35,0,0,0,.69,0V7.13A.35.35,0,0,0,4.42,6.78Z"/><path class="cls-48" d="M9.89,6.78a.35.35,0,0,0-.35.35V8.81a.35.35,0,0,0,.7,0V7.13A.35.35,0,0,0,9.89,6.78Z"/><path class="cls-48" d="M5.08,6.78V9.9a.52.52,0,0,0,.52.52h.56v.88a.35.35,0,0,0,.7,0v-.88h.59v.88a.35.35,0,0,0,.7,0v-.88h.56a.52.52,0,0,0,.52-.52V6.78Z"/><path class="cls-48" d="M8.19,5.66a.2.2,0,0,1,0-.39.2.2,0,0,1,0,.39Zm0-1L8.54,4l-.08,0-.37.7a2,2,0,0,0-.93-.22,2.07,2.07,0,0,0-.9.2L5.9,3.93,5.83,4l.36.67A2.07,2.07,0,0,0,5.1,6.45H9.22A2.07,2.07,0,0,0,8.17,4.67Zm-2.08,1a.2.2,0,1,1,.2-.2A.2.2,0,0,1,6.1,5.66Z"/></g><g class="cls-49"><path class="cls-50" d="M4.39,6.75A.35.35,0,0,0,4,7.1V8.78a.35.35,0,0,0,.69,0V7.1A.35.35,0,0,0,4.39,6.75Z"/><path class="cls-50" d="M9.86,6.75a.35.35,0,0,0-.35.35V8.78a.35.35,0,0,0,.7,0V7.1A.35.35,0,0,0,9.86,6.75Z"/><path class="cls-50" d="M5.05,6.75V9.87a.52.52,0,0,0,.52.52h.56v.88a.35.35,0,0,0,.7,0v-.88h.59v.88a.35.35,0,0,0,.35.34.35.35,0,0,0,.35-.34v-.88h.56a.52.52,0,0,0,.52-.52V6.75Z"/><path class="cls-50" d="M8.16,5.62a.2.2,0,0,1,0-.39.2.2,0,0,1,0,.39Zm0-1,.37-.69-.08,0-.37.7a2,2,0,0,0-.93-.23,2.08,2.08,0,0,0-.9.2L5.87,3.9l-.08,0,.36.67a2.07,2.07,0,0,0-1.09,1.8H9.19A2.07,2.07,0,0,0,8.14,4.63Zm-2.08,1a.2.2,0,1,1,.2-.2A.2.2,0,0,1,6.07,5.62Z"/></g><g class="cls-51"><path class="cls-52" d="M4.36,6.71A.35.35,0,0,0,4,7.06V8.75a.35.35,0,0,0,.69,0V7.06A.35.35,0,0,0,4.36,6.71Z"/><path class="cls-52" d="M9.82,6.71a.35.35,0,0,0-.35.35V8.75a.35.35,0,0,0,.7,0V7.06A.35.35,0,0,0,9.82,6.71Z"/><path class="cls-52" d="M5,6.71V9.83a.52.52,0,0,0,.52.52H6.1v.88a.35.35,0,0,0,.7,0v-.88h.59v.88a.35.35,0,0,0,.7,0v-.88h.56a.52.52,0,0,0,.52-.52V6.71Z"/><path class="cls-52" d="M8.13,5.59a.2.2,0,0,1,0-.39.2.2,0,0,1,0,.39Zm0-1,.37-.69-.08,0L8,4.56a2,2,0,0,0-.93-.22,2.07,2.07,0,0,0-.9.2l-.36-.67-.08,0,.36.67A2.07,2.07,0,0,0,5,6.38H9.16A2.07,2.07,0,0,0,8.11,4.6ZM6,5.59a.2.2,0,1,1,.2-.2A.2.2,0,0,1,6,5.59Z"/></g><g class="cls-53"><path class="cls-54" d="M4.33,6.68A.35.35,0,0,0,4,7V8.71a.35.35,0,0,0,.69,0V7A.35.35,0,0,0,4.33,6.68Z"/><path class="cls-54" d="M9.79,6.68A.35.35,0,0,0,9.45,7V8.71a.35.35,0,0,0,.7,0V7A.35.35,0,0,0,9.79,6.68Z"/><path class="cls-54" d="M5,6.68V9.8a.52.52,0,0,0,.52.52h.56v.88a.35.35,0,0,0,.7,0v-.88h.59v.88a.35.35,0,0,0,.7,0v-.88h.56a.52.52,0,0,0,.52-.52V6.68Z"/><path class="cls-54" d="M8.1,5.55a.2.2,0,0,1,0-.39.2.2,0,0,1,0,.39Zm0-1,.37-.69-.08,0L8,4.52a2,2,0,0,0-.93-.22,2.08,2.08,0,0,0-.9.2l-.36-.67-.08,0,.36.67A2.06,2.06,0,0,0,5,6.34H9.13A2.07,2.07,0,0,0,8.08,4.56ZM6,5.55a.2.2,0,1,1,.2-.2A.2.2,0,0,1,6,5.55Z"/></g><g class="cls-55"><path class="cls-56" d="M4.3,6.64A.35.35,0,0,0,4,7V8.68a.35.35,0,0,0,.69,0V7A.35.35,0,0,0,4.3,6.64Z"/><path class="cls-56" d="M9.76,6.64A.35.35,0,0,0,9.42,7V8.68a.35.35,0,0,0,.7,0V7A.35.35,0,0,0,9.76,6.64Z"/><path class="cls-56" d="M5,6.64V9.76a.52.52,0,0,0,.52.52H6v.88a.35.35,0,0,0,.7,0v-.88h.59v.88a.35.35,0,0,0,.7,0v-.88h.56a.52.52,0,0,0,.52-.52V6.64Z"/><path class="cls-56" d="M8.07,5.52a.2.2,0,0,1,0-.39.2.2,0,0,1,0,.39Zm0-1,.37-.69-.08,0L8,4.49A2,2,0,0,0,7,4.27a2.07,2.07,0,0,0-.9.2l-.36-.67-.08,0,.36.67A2.06,2.06,0,0,0,5,6.31H9.1A2.07,2.07,0,0,0,8.05,4.53ZM6,5.52a.2.2,0,1,1,.2-.2A.2.2,0,0,1,6,5.52Z"/></g><g class="cls-57"><path class="cls-58" d="M4.27,6.61A.35.35,0,0,0,3.93,7V8.64a.35.35,0,0,0,.69,0V7A.35.35,0,0,0,4.27,6.61Z"/><path class="cls-58" d="M9.73,6.61A.35.35,0,0,0,9.39,7V8.64a.35.35,0,0,0,.7,0V7A.35.35,0,0,0,9.73,6.61Z"/><path class="cls-58" d="M4.93,6.61V9.73a.52.52,0,0,0,.52.52H6v.89a.35.35,0,0,0,.7,0v-.89H7.3v.89a.35.35,0,0,0,.7,0v-.89h.56a.52.52,0,0,0,.52-.52V6.61Z"/><path class="cls-58" d="M8,5.48a.2.2,0,0,1,0-.39.2.2,0,0,1,0,.39Zm0-1,.37-.69-.08,0-.37.7A2,2,0,0,0,7,4.23a2.07,2.07,0,0,0-.9.2l-.36-.67-.08,0L6,4.47a2.07,2.07,0,0,0-1.09,1.8H9.07A2.07,2.07,0,0,0,8,4.49Zm-2.08,1a.2.2,0,1,1,.2-.2A.2.2,0,0,1,5.95,5.48Z"/></g><g class="cls-59"><path class="cls-60" d="M4.24,6.57a.35.35,0,0,0-.35.35V8.61a.35.35,0,0,0,.69,0V6.92A.35.35,0,0,0,4.24,6.57Z"/><path class="cls-60" d="M9.7,6.57a.35.35,0,0,0-.35.35V8.61a.35.35,0,0,0,.7,0V6.92A.35.35,0,0,0,9.7,6.57Z"/><path class="cls-60" d="M4.9,6.57V9.69a.52.52,0,0,0,.52.52H6v.88a.35.35,0,0,0,.7,0v-.88h.59v.88a.35.35,0,0,0,.7,0v-.88h.56a.52.52,0,0,0,.52-.52V6.57Z"/><path class="cls-60" d="M8,5.45a.2.2,0,0,1,0-.39.2.2,0,0,1,0,.39Zm0-1,.37-.69-.08,0-.37.7A2,2,0,0,0,7,4.2a2.07,2.07,0,0,0-.9.2l-.36-.67-.08,0L6,4.44A2.07,2.07,0,0,0,4.92,6.24H9A2.07,2.07,0,0,0,8,4.46Zm-2.08,1a.2.2,0,1,1,.2-.2A.2.2,0,0,1,5.91,5.45Z"/></g><g class="cls-61"><path class="cls-62" d="M4.21,6.54a.35.35,0,0,0-.35.35V8.57a.35.35,0,0,0,.69,0V6.89A.35.35,0,0,0,4.21,6.54Z"/><path class="cls-62" d="M9.67,6.54a.35.35,0,0,0-.35.35V8.57a.35.35,0,0,0,.7,0V6.89A.35.35,0,0,0,9.67,6.54Z"/><path class="cls-62" d="M4.87,6.54V9.66a.52.52,0,0,0,.52.52H6v.88a.35.35,0,0,0,.7,0v-.88h.59v.88a.35.35,0,0,0,.7,0v-.88H8.5A.52.52,0,0,0,9,9.66V6.54Z"/><path class="cls-62" d="M8,5.41A.2.2,0,0,1,8,5a.2.2,0,0,1,0,.39Zm0-1,.37-.69-.08,0-.37.7a2,2,0,0,0-.93-.22,2.08,2.08,0,0,0-.9.2l-.36-.67-.08,0L6,4.4a2.06,2.06,0,0,0-1.09,1.8H9A2.07,2.07,0,0,0,8,4.42Zm-2.08,1a.2.2,0,1,1,.2-.2A.2.2,0,0,1,5.88,5.41Z"/></g><g class="cls-63"><path class="cls-64" d="M4.18,6.5a.35.35,0,0,0-.35.35V8.54a.35.35,0,0,0,.69,0V6.85A.35.35,0,0,0,4.18,6.5Z"/><path class="cls-64" d="M9.64,6.5a.35.35,0,0,0-.35.35V8.54a.35.35,0,0,0,.7,0V6.85A.35.35,0,0,0,9.64,6.5Z"/><path class="cls-64" d="M4.84,6.5V9.62a.52.52,0,0,0,.52.52h.56V11a.35.35,0,0,0,.7,0v-.88h.59V11a.35.35,0,0,0,.7,0v-.88h.56A.52.52,0,0,0,9,9.62V6.5Z"/><path class="cls-64" d="M7.94,5.38a.2.2,0,0,1,0-.39.2.2,0,0,1,0,.39Zm0-1L8.3,3.7l-.08,0-.37.7a2,2,0,0,0-.93-.22,2.07,2.07,0,0,0-.9.2l-.36-.67-.08,0,.36.67a2.06,2.06,0,0,0-1.09,1.8H9A2.07,2.07,0,0,0,7.93,4.39Zm-2.08,1a.2.2,0,1,1,.2-.2A.2.2,0,0,1,5.86,5.38Z"/></g><g class="cls-65"><path class="cls-66" d="M4.15,6.47a.35.35,0,0,0-.35.35V8.5a.35.35,0,0,0,.69,0V6.82A.35.35,0,0,0,4.15,6.47Z"/><path class="cls-66" d="M9.61,6.47a.35.35,0,0,0-.35.35V8.5a.35.35,0,0,0,.7,0V6.82A.35.35,0,0,0,9.61,6.47Z"/><path class="cls-66" d="M4.81,6.47V9.59a.52.52,0,0,0,.52.52h.56V11a.35.35,0,0,0,.7,0v-.88h.59V11a.35.35,0,0,0,.7,0v-.88h.56A.52.52,0,0,0,9,9.59V6.47Z"/><path class="cls-66" d="M7.91,5.34a.2.2,0,0,1,0-.39.2.2,0,0,1,0,.39Zm0-1,.37-.69-.08,0-.37.7a2,2,0,0,0-.93-.22,2.07,2.07,0,0,0-.9.2l-.36-.67-.08,0,.36.67a2.07,2.07,0,0,0-1.09,1.8H8.95A2.07,2.07,0,0,0,7.9,4.35Zm-2.08,1a.2.2,0,1,1,.2-.2A.2.2,0,0,1,5.82,5.34Z"/></g><g class="cls-67"><path class="cls-68" d="M4.12,6.44a.35.35,0,0,0-.35.35V8.47a.35.35,0,0,0,.69,0V6.78A.35.35,0,0,0,4.12,6.44Z"/><path class="cls-68" d="M9.58,6.44a.35.35,0,0,0-.35.35V8.47a.35.35,0,0,0,.7,0V6.78A.35.35,0,0,0,9.58,6.44Z"/><path class="cls-68" d="M4.78,6.44V9.55a.52.52,0,0,0,.52.52h.56V11a.35.35,0,0,0,.7,0v-.89h.59V11a.35.35,0,0,0,.7,0v-.89h.56a.52.52,0,0,0,.52-.52V6.44Z"/><path class="cls-68" d="M7.88,5.31a.2.2,0,0,1,0-.39.2.2,0,0,1,0,.39Zm0-1,.37-.69-.08,0-.37.7a2,2,0,0,0-.93-.22,2.07,2.07,0,0,0-.9.2L5.6,3.58l-.08,0,.36.67A2.06,2.06,0,0,0,4.8,6.1H8.92A2.07,2.07,0,0,0,7.87,4.32Zm-2.08,1a.2.2,0,1,1,.2-.2A.2.2,0,0,1,5.79,5.31Z"/></g><g class="cls-69"><path class="cls-70" d="M4.09,6.4a.35.35,0,0,0-.35.35V8.43a.35.35,0,0,0,.69,0V6.75A.35.35,0,0,0,4.09,6.4Z"/><path class="cls-70" d="M9.55,6.4a.35.35,0,0,0-.35.35V8.43a.35.35,0,0,0,.7,0V6.75A.35.35,0,0,0,9.55,6.4Z"/><path class="cls-70" d="M4.75,6.4V9.52a.52.52,0,0,0,.52.52h.56v.88a.35.35,0,0,0,.7,0V10h.59v.88a.35.35,0,0,0,.7,0V10h.56a.52.52,0,0,0,.52-.52V6.4Z"/><path class="cls-70" d="M7.85,5.27a.2.2,0,0,1,0-.39.2.2,0,0,1,0,.39Zm0-1,.37-.69-.08,0-.37.7A2,2,0,0,0,6.83,4a2.07,2.07,0,0,0-.9.2l-.36-.67-.08,0,.36.67a2.07,2.07,0,0,0-1.09,1.8H8.89A2.07,2.07,0,0,0,7.84,4.28Zm-2.08,1a.2.2,0,1,1,.2-.2A.2.2,0,0,1,5.76,5.27Z"/></g><g class="cls-71"><path class="cls-72" d="M4.06,6.37a.35.35,0,0,0-.35.35V8.4a.35.35,0,0,0,.69,0V6.71A.35.35,0,0,0,4.06,6.37Z"/><path class="cls-72" d="M9.52,6.37a.35.35,0,0,0-.35.35V8.4a.35.35,0,0,0,.7,0V6.71A.35.35,0,0,0,9.52,6.37Z"/><path class="cls-72" d="M4.72,6.37V9.49a.52.52,0,0,0,.52.52H5.8v.89a.35.35,0,0,0,.7,0V10h.59v.89a.35.35,0,0,0,.7,0V10h.56a.52.52,0,0,0,.52-.52V6.37Z"/><path class="cls-72" d="M7.82,5.24a.2.2,0,0,1,0-.39.2.2,0,0,1,0,.39Zm0-1,.37-.69-.08,0-.37.7A2,2,0,0,0,6.8,4a2.08,2.08,0,0,0-.9.2l-.36-.67-.08,0,.36.67A2.07,2.07,0,0,0,4.74,6H8.86A2.07,2.07,0,0,0,7.81,4.25Zm-2.08,1a.2.2,0,1,1,.2-.2A.2.2,0,0,1,5.73,5.24Z"/></g><g class="cls-73"><path class="cls-74" d="M4,6.33a.35.35,0,0,0-.35.35V8.36a.35.35,0,0,0,.69,0V6.68A.35.35,0,0,0,4,6.33Z"/><path class="cls-74" d="M9.49,6.33a.35.35,0,0,0-.35.35V8.36a.35.35,0,0,0,.7,0V6.68A.35.35,0,0,0,9.49,6.33Z"/><path class="cls-74" d="M4.69,6.33V9.45a.52.52,0,0,0,.52.52h.56v.88a.35.35,0,0,0,.7,0V10h.59v.88a.35.35,0,0,0,.7,0V10h.56a.52.52,0,0,0,.52-.52V6.33Z"/><path class="cls-74" d="M7.79,5.21a.2.2,0,0,1,0-.39.2.2,0,0,1,0,.39Zm0-1,.37-.69-.08,0-.37.7A2,2,0,0,0,6.77,4a2.07,2.07,0,0,0-.9.2l-.36-.67-.08,0,.36.67A2.07,2.07,0,0,0,4.71,6H8.83A2.07,2.07,0,0,0,7.78,4.22Zm-2.08,1A.2.2,0,1,1,5.9,5,.2.2,0,0,1,5.7,5.21Z"/></g><g class="cls-75"><path class="cls-76" d="M4,6.3a.35.35,0,0,0-.35.35V8.33a.35.35,0,0,0,.69,0V6.65A.35.35,0,0,0,4,6.3Z"/><path class="cls-76" d="M9.46,6.3a.35.35,0,0,0-.35.35V8.33a.35.35,0,0,0,.7,0V6.65A.35.35,0,0,0,9.46,6.3Z"/><path class="cls-76" d="M4.66,6.3V9.42a.52.52,0,0,0,.52.52h.56v.88a.35.35,0,0,0,.7,0V9.94H7v.88a.35.35,0,0,0,.7,0V9.94h.56a.52.52,0,0,0,.52-.52V6.3Z"/><path class="cls-76" d="M7.76,5.17a.2.2,0,0,1,0-.39.2.2,0,0,1,0,.39Zm0-1,.37-.69L8,3.44l-.37.7a2,2,0,0,0-.93-.22,2.07,2.07,0,0,0-.9.2l-.36-.67-.08,0,.36.67A2.07,2.07,0,0,0,4.68,6H8.79A2.07,2.07,0,0,0,7.75,4.18Zm-2.08,1a.2.2,0,1,1,.2-.2A.2.2,0,0,1,5.67,5.17Z"/></g><g class="cls-77"><path class="cls-78" d="M4,6.26a.35.35,0,0,0-.35.35V8.29a.35.35,0,0,0,.69,0V6.61A.35.35,0,0,0,4,6.26Z"/><path class="cls-78" d="M9.43,6.26a.35.35,0,0,0-.35.35V8.29a.35.35,0,0,0,.7,0V6.61A.35.35,0,0,0,9.43,6.26Z"/><path class="cls-78" d="M4.63,6.26V9.38a.52.52,0,0,0,.52.52h.56v.88a.35.35,0,0,0,.7,0V9.9H7v.88a.35.35,0,0,0,.7,0V9.9h.56a.52.52,0,0,0,.52-.52V6.26Z"/><path class="cls-78" d="M7.73,5.13a.2.2,0,0,1,0-.39.2.2,0,0,1,0,.39Zm0-1,.37-.69L8,3.41l-.37.7a2,2,0,0,0-.93-.22,2.08,2.08,0,0,0-.9.2l-.36-.67-.08,0,.36.67a2.06,2.06,0,0,0-1.09,1.8H8.76A2.07,2.07,0,0,0,7.72,4.15Zm-2.08,1a.2.2,0,1,1,.2-.2A.2.2,0,0,1,5.64,5.13Z"/></g><g class="cls-79"><path class="cls-80" d="M3.94,6.23a.35.35,0,0,0-.35.35V8.26a.35.35,0,0,0,.69,0V6.58A.35.35,0,0,0,3.94,6.23Z"/><path class="cls-80" d="M9.4,6.23a.35.35,0,0,0-.35.35V8.26a.35.35,0,0,0,.7,0V6.58A.35.35,0,0,0,9.4,6.23Z"/><path class="cls-80" d="M4.6,6.23V9.35a.52.52,0,0,0,.52.52h.56v.88a.35.35,0,0,0,.7,0V9.87H7v.88a.35.35,0,0,0,.35.35.35.35,0,0,0,.35-.35V9.87h.56a.52.52,0,0,0,.52-.52V6.23Z"/><path class="cls-80" d="M7.7,5.1a.2.2,0,0,1,0-.39.2.2,0,0,1,0,.39Zm0-1,.37-.69L8,3.38l-.37.7a2,2,0,0,0-.93-.23,2.08,2.08,0,0,0-.9.2l-.36-.67-.08,0,.36.67a2.07,2.07,0,0,0-1.09,1.8H8.73A2.07,2.07,0,0,0,7.69,4.11Zm-2.08,1a.2.2,0,1,1,.2-.2A.2.2,0,0,1,5.61,5.1Z"/></g><g class="cls-81"><path class="cls-82" d="M3.91,6.19a.35.35,0,0,0-.35.35V8.22a.35.35,0,0,0,.69,0V6.54A.35.35,0,0,0,3.91,6.19Z"/><path class="cls-82" d="M9.37,6.19A.35.35,0,0,0,9,6.54V8.22a.35.35,0,0,0,.7,0V6.54A.35.35,0,0,0,9.37,6.19Z"/><path class="cls-82" d="M4.57,6.19V9.31a.52.52,0,0,0,.52.52h.56v.88a.35.35,0,0,0,.7,0V9.84h.59v.88a.35.35,0,0,0,.7,0V9.84H8.2a.52.52,0,0,0,.52-.52V6.19Z"/><path class="cls-82" d="M7.67,5.07a.2.2,0,0,1,0-.39.2.2,0,0,1,0,.39Zm0-1L8,3.38,8,3.34,7.58,4a2,2,0,0,0-.93-.22,2.07,2.07,0,0,0-.9.2l-.36-.67-.08,0,.36.67a2.07,2.07,0,0,0-1.09,1.8H8.7A2.07,2.07,0,0,0,7.66,4.08Zm-2.08,1a.2.2,0,1,1,.2-.2A.2.2,0,0,1,5.58,5.07Z"/></g><g class="cls-83"><path class="cls-84" d="M3.88,6.16a.35.35,0,0,0-.35.35V8.19a.35.35,0,0,0,.69,0V6.51A.35.35,0,0,0,3.88,6.16Z"/><path class="cls-84" d="M9.34,6.16A.35.35,0,0,0,9,6.51V8.19a.35.35,0,0,0,.7,0V6.51A.35.35,0,0,0,9.34,6.16Z"/><path class="cls-84" d="M4.54,6.16V9.28a.52.52,0,0,0,.52.52h.56v.88a.35.35,0,0,0,.7,0V9.8h.59v.88a.35.35,0,0,0,.7,0V9.8h.56a.52.52,0,0,0,.52-.52V6.16Z"/><path class="cls-84" d="M7.64,5a.2.2,0,0,1,0-.39.2.2,0,0,1,0,.39Zm0-1L8,3.35l-.08,0L7.55,4a2,2,0,0,0-.93-.22,2.06,2.06,0,0,0-.9.2l-.36-.67-.08,0L5.64,4a2.07,2.07,0,0,0-1.09,1.8H8.67A2.07,2.07,0,0,0,7.63,4ZM5.55,5a.2.2,0,1,1,.2-.2A.2.2,0,0,1,5.55,5Z"/></g><g class="cls-85"><path class="cls-86" d="M3.85,6.12a.35.35,0,0,0-.35.35V8.15a.35.35,0,0,0,.69,0V6.47A.35.35,0,0,0,3.85,6.12Z"/><path class="cls-86" d="M9.31,6.12A.35.35,0,0,0,9,6.47V8.15a.35.35,0,0,0,.7,0V6.47A.35.35,0,0,0,9.31,6.12Z"/><path class="cls-86" d="M4.51,6.12V9.24A.52.52,0,0,0,5,9.77h.56v.88a.35.35,0,0,0,.7,0V9.77h.59v.88a.35.35,0,0,0,.7,0V9.77h.56a.52.52,0,0,0,.52-.52V6.12Z"/><path class="cls-86" d="M7.61,5a.2.2,0,0,1,0-.39.2.2,0,0,1,0,.39Zm0-1L8,3.31l-.08,0L7.52,4a2,2,0,0,0-.93-.22,2.08,2.08,0,0,0-.9.2l-.36-.67-.08,0L5.61,4A2.07,2.07,0,0,0,4.52,5.79H8.64A2.07,2.07,0,0,0,7.6,4ZM5.52,5a.2.2,0,1,1,.2-.2A.2.2,0,0,1,5.52,5Z"/></g><g class="cls-87"><path class="cls-88" d="M3.82,6.09a.35.35,0,0,0-.35.35V8.12a.35.35,0,0,0,.69,0V6.44A.35.35,0,0,0,3.82,6.09Z"/><path class="cls-88" d="M9.28,6.09a.35.35,0,0,0-.35.35V8.12a.35.35,0,0,0,.7,0V6.44A.35.35,0,0,0,9.28,6.09Z"/><path class="cls-88" d="M4.48,6.09V9.21A.52.52,0,0,0,5,9.73h.56v.88a.35.35,0,0,0,.7,0V9.73h.59v.88a.35.35,0,0,0,.7,0V9.73h.56a.52.52,0,0,0,.52-.52V6.09Z"/><path class="cls-88" d="M7.58,5a.2.2,0,0,1,0-.39.2.2,0,0,1,0,.39Zm0-1,.37-.69-.08,0-.37.7a2,2,0,0,0-.93-.23,2.07,2.07,0,0,0-.9.2L5.3,3.24l-.08,0L5.58,4a2.06,2.06,0,0,0-1.09,1.8H8.61A2.07,2.07,0,0,0,7.57,4ZM5.49,5a.2.2,0,1,1,.2-.2A.2.2,0,0,1,5.49,5Z"/></g><g class="cls-89"><path class="cls-90" d="M3.79,6.05a.35.35,0,0,0-.35.35V8.08a.35.35,0,0,0,.69,0V6.4A.35.35,0,0,0,3.79,6.05Z"/><path class="cls-90" d="M9.25,6.05a.35.35,0,0,0-.35.35V8.08a.35.35,0,0,0,.7,0V6.4A.35.35,0,0,0,9.25,6.05Z"/><path class="cls-90" d="M4.45,6.05V9.17A.52.52,0,0,0,5,9.7h.56v.88a.35.35,0,0,0,.7,0V9.7h.59v.88a.35.35,0,0,0,.7,0V9.7h.56a.52.52,0,0,0,.52-.52V6.05Z"/><path class="cls-90" d="M7.55,4.93a.2.2,0,0,1,0-.39.2.2,0,0,1,0,.39Zm0-1,.37-.69-.08,0-.37.7a2,2,0,0,0-.93-.22,2.07,2.07,0,0,0-.9.2L5.27,3.2l-.08,0,.36.67A2.06,2.06,0,0,0,4.46,5.72H8.58A2.07,2.07,0,0,0,7.54,3.94Zm-2.08,1a.2.2,0,1,1,.2-.2A.2.2,0,0,1,5.46,4.93Z"/></g><g class="cls-91"><path class="cls-92" d="M3.76,6a.35.35,0,0,0-.35.35V8.05a.35.35,0,0,0,.69,0V6.37A.35.35,0,0,0,3.76,6Z"/><path class="cls-92" d="M9.22,6a.35.35,0,0,0-.35.35V8.05a.35.35,0,0,0,.7,0V6.37A.35.35,0,0,0,9.22,6Z"/><path class="cls-92" d="M4.42,6V9.14a.52.52,0,0,0,.52.52H5.5v.88a.35.35,0,0,0,.7,0V9.66h.59v.88a.35.35,0,0,0,.7,0V9.66H8a.52.52,0,0,0,.52-.52V6Z"/><path class="cls-92" d="M7.52,4.89a.2.2,0,0,1,0-.39.2.2,0,0,1,0,.39Zm0-1,.37-.69-.08,0-.37.7a2,2,0,0,0-.93-.22,2.07,2.07,0,0,0-.9.2l-.36-.67-.08,0,.36.67a2.06,2.06,0,0,0-1.09,1.8H8.55A2.07,2.07,0,0,0,7.51,3.9Zm-2.08,1a.2.2,0,1,1,.2-.2A.2.2,0,0,1,5.43,4.89Z"/></g><g class="cls-93"><path class="cls-94" d="M3.73,6a.35.35,0,0,0-.35.35V8a.35.35,0,0,0,.69,0V6.33A.35.35,0,0,0,3.73,6Z"/><path class="cls-94" d="M9.19,6a.35.35,0,0,0-.35.35V8a.35.35,0,0,0,.35.35A.35.35,0,0,0,9.54,8V6.33A.35.35,0,0,0,9.19,6Z"/><path class="cls-94" d="M4.39,6V9.1a.52.52,0,0,0,.52.52h.56v.88a.35.35,0,0,0,.7,0V9.63h.59v.88a.35.35,0,0,0,.7,0V9.63H8a.52.52,0,0,0,.52-.52V6Z"/><path class="cls-94" d="M7.49,4.86a.2.2,0,0,1,0-.39.2.2,0,0,1,0,.39Zm0-1,.37-.69-.08,0-.37.7a2,2,0,0,0-.93-.22,2.07,2.07,0,0,0-.9.2l-.36-.67-.08,0,.36.67A2.06,2.06,0,0,0,4.4,5.65H8.52A2.07,2.07,0,0,0,7.48,3.87Zm-2.08,1a.2.2,0,1,1,.2-.2A.2.2,0,0,1,5.4,4.86Z"/></g><g class="cls-95"><path class="cls-96" d="M3.7,5.95a.35.35,0,0,0-.35.35V8A.35.35,0,0,0,4,8V6.3A.35.35,0,0,0,3.7,5.95Z"/><path class="cls-96" d="M9.16,5.95a.35.35,0,0,0-.35.35V8a.35.35,0,0,0,.7,0V6.3A.35.35,0,0,0,9.16,5.95Z"/><path class="cls-96" d="M4.36,5.95V9.07a.52.52,0,0,0,.52.52h.56v.88a.35.35,0,0,0,.7,0V9.59h.59v.88a.35.35,0,0,0,.7,0V9.59H8a.52.52,0,0,0,.52-.52V5.95Z"/><path class="cls-96" d="M7.46,4.82a.2.2,0,0,1,0-.39.2.2,0,0,1,0,.39Zm0-1,.37-.69-.08,0-.37.7a2,2,0,0,0-.93-.22,2.07,2.07,0,0,0-.9.2L5.18,3.1l-.08,0,.36.67a2.07,2.07,0,0,0-1.09,1.8H8.49A2.07,2.07,0,0,0,7.45,3.83Zm-2.08,1a.2.2,0,1,1,.2-.2A.2.2,0,0,1,5.37,4.82Z"/></g><g class="cls-97"><path class="cls-98" d="M3.67,5.91a.35.35,0,0,0-.35.35V7.95a.35.35,0,0,0,.69,0V6.26A.35.35,0,0,0,3.67,5.91Z"/><path class="cls-98" d="M9.13,5.91a.35.35,0,0,0-.35.35V7.95a.35.35,0,0,0,.7,0V6.26A.35.35,0,0,0,9.13,5.91Z"/><path class="cls-98" d="M4.33,5.91V9a.52.52,0,0,0,.52.52h.56v.89a.35.35,0,0,0,.7,0V9.56H6.7v.89a.35.35,0,0,0,.7,0V9.56H8A.52.52,0,0,0,8.48,9V5.91Z"/><path class="cls-98" d="M7.43,4.79a.2.2,0,0,1,0-.39.2.2,0,0,1,0,.39Zm0-1,.37-.69-.08,0-.37.7a2,2,0,0,0-.94-.22,2.07,2.07,0,0,0-.9.2l-.36-.67-.08,0,.36.67a2.06,2.06,0,0,0-1.09,1.8H8.46A2.07,2.07,0,0,0,7.42,3.8Zm-2.08,1a.2.2,0,1,1,.2-.2A.2.2,0,0,1,5.34,4.79Z"/></g><g class="cls-99"><path class="cls-100" d="M3.64,5.88a.35.35,0,0,0-.35.35V7.91a.35.35,0,0,0,.69,0V6.23A.35.35,0,0,0,3.64,5.88Z"/><path class="cls-100" d="M9.1,5.88a.35.35,0,0,0-.35.35V7.91a.35.35,0,0,0,.7,0V6.23A.35.35,0,0,0,9.1,5.88Z"/><path class="cls-100" d="M4.3,5.88V9a.52.52,0,0,0,.52.52h.56v.88a.35.35,0,0,0,.7,0V9.52h.59v.88a.35.35,0,0,0,.7,0V9.52h.56A.52.52,0,0,0,8.45,9V5.88Z"/><path class="cls-100" d="M7.4,4.75a.2.2,0,0,1,0-.39.2.2,0,0,1,0,.39Zm0-1,.37-.69L7.68,3l-.37.7a2,2,0,0,0-.94-.22,2.07,2.07,0,0,0-.9.2L5.12,3,5,3.07l.36.67a2.07,2.07,0,0,0-1.09,1.8H8.43A2.07,2.07,0,0,0,7.39,3.76Zm-2.08,1a.2.2,0,1,1,.2-.2A.2.2,0,0,1,5.31,4.75Z"/></g><g class="cls-101"><path class="cls-102" d="M3.61,5.85a.35.35,0,0,0-.35.35V7.88a.35.35,0,0,0,.69,0V6.19A.35.35,0,0,0,3.61,5.85Z"/><path class="cls-102" d="M9.07,5.85a.35.35,0,0,0-.35.35V7.88a.35.35,0,0,0,.7,0V6.19A.35.35,0,0,0,9.07,5.85Z"/><path class="cls-102" d="M4.27,5.85V9a.52.52,0,0,0,.52.52h.56v.88a.35.35,0,0,0,.7,0V9.49h.59v.88a.35.35,0,0,0,.7,0V9.49H7.9A.52.52,0,0,0,8.42,9V5.85Z"/><path class="cls-102" d="M7.37,4.72a.2.2,0,0,1,0-.39.2.2,0,0,1,0,.39Zm0-1L7.73,3,7.65,3l-.37.7a2,2,0,0,0-.93-.23,2.07,2.07,0,0,0-.9.2L5.09,3,5,3l.36.67A2.07,2.07,0,0,0,4.28,5.51H8.4A2.06,2.06,0,0,0,7.36,3.73Zm-2.08,1a.2.2,0,1,1,.2-.2A.2.2,0,0,1,5.28,4.72Z"/></g><g class="cls-103"><path class="cls-104" d="M3.58,5.81a.35.35,0,0,0-.35.35V7.84a.35.35,0,0,0,.69,0V6.16A.35.35,0,0,0,3.58,5.81Z"/><path class="cls-104" d="M9,5.81a.35.35,0,0,0-.35.35V7.84a.35.35,0,0,0,.7,0V6.16A.35.35,0,0,0,9,5.81Z"/><path class="cls-104" d="M4.24,5.81V8.93a.52.52,0,0,0,.52.52h.56v.88a.35.35,0,0,0,.7,0V9.45h.59v.88a.35.35,0,0,0,.7,0V9.45h.56a.52.52,0,0,0,.52-.52V5.81Z"/><path class="cls-104" d="M7.34,4.68a.2.2,0,0,1,0-.39.2.2,0,0,1,0,.39Zm0-1L7.7,3,7.62,3l-.37.7a2,2,0,0,0-.93-.22,2.08,2.08,0,0,0-.9.2L5.06,3,5,3l.36.67a2.06,2.06,0,0,0-1.09,1.8H8.37A2.07,2.07,0,0,0,7.33,3.7Zm-2.08,1a.2.2,0,1,1,.2-.2A.2.2,0,0,1,5.25,4.68Z"/></g><g class="cls-105"><path class="cls-106" d="M3.55,5.78a.35.35,0,0,0-.35.35V7.81a.35.35,0,0,0,.69,0V6.13A.35.35,0,0,0,3.55,5.78Z"/><path class="cls-106" d="M9,5.78a.35.35,0,0,0-.35.35V7.81a.35.35,0,0,0,.7,0V6.13A.35.35,0,0,0,9,5.78Z"/><path class="cls-106" d="M4.21,5.78V8.9a.52.52,0,0,0,.52.52h.56v.88a.35.35,0,0,0,.7,0V9.42h.59v.88a.35.35,0,0,0,.7,0V9.42h.56a.52.52,0,0,0,.52-.52V5.78Z"/><path class="cls-106" d="M7.31,4.65a.2.2,0,1,1,.19-.2A.2.2,0,0,1,7.31,4.65Zm0-1L7.67,3l-.08,0-.37.7a2,2,0,0,0-.94-.22,2.07,2.07,0,0,0-.9.2L5,2.92,5,3l.36.67a2.06,2.06,0,0,0-1.09,1.8H8.34A2.07,2.07,0,0,0,7.3,3.66Zm-2.08,1a.2.2,0,1,1,.2-.2A.2.2,0,0,1,5.22,4.65Z"/></g><g class="cls-107"><path class="cls-108" d="M3.52,5.74a.35.35,0,0,0-.35.35V7.77a.35.35,0,0,0,.69,0V6.09A.35.35,0,0,0,3.52,5.74Z"/><path class="cls-108" d="M9,5.74a.35.35,0,0,0-.35.35V7.77a.35.35,0,0,0,.7,0V6.09A.35.35,0,0,0,9,5.74Z"/><path class="cls-108" d="M4.18,5.74V8.86a.52.52,0,0,0,.52.52h.56v.88a.35.35,0,0,0,.7,0V9.38h.59v.88a.35.35,0,0,0,.7,0V9.38h.56a.52.52,0,0,0,.52-.52V5.74Z"/><path class="cls-108" d="M7.28,4.61a.2.2,0,0,1,0-.39.2.2,0,0,1,0,.39Zm0-1,.37-.69-.08,0-.37.7a2,2,0,0,0-.93-.22,2.07,2.07,0,0,0-.9.2L5,2.89l-.08,0,.36.67a2.06,2.06,0,0,0-1.09,1.8H8.31A2.07,2.07,0,0,0,7.27,3.63Zm-2.08,1a.2.2,0,1,1,.2-.2A.2.2,0,0,1,5.19,4.61Z"/></g><path class="cls-109" d="M3.49,5.71a.35.35,0,0,0-.35.35V7.74a.35.35,0,0,0,.69,0V6.06A.35.35,0,0,0,3.49,5.71Z"/><path class="cls-109" d="M8.95,5.71a.35.35,0,0,0-.35.35V7.74a.35.35,0,0,0,.7,0V6.06A.35.35,0,0,0,8.95,5.71Z"/><path class="cls-109" d="M4.15,5.71V8.83a.52.52,0,0,0,.52.52h.56v.88a.35.35,0,0,0,.7,0V9.35h.59v.88a.35.35,0,0,0,.7,0V9.35h.56a.52.52,0,0,0,.52-.52V5.71Z"/><path class="cls-109" d="M7.25,4.58a.2.2,0,0,1,0-.39.2.2,0,0,1,0,.39Zm0-1,.37-.69-.08,0-.37.7a2,2,0,0,0-.93-.22,2.07,2.07,0,0,0-.9.2L5,2.85l-.08,0,.36.67a2.06,2.06,0,0,0-1.09,1.8H8.28A2.07,2.07,0,0,0,7.23,3.59Zm-2.08,1a.2.2,0,1,1,.2-.2A.2.2,0,0,1,5.16,4.58Z"/></g><path class="cls-47" d="M3.49,5.71a.35.35,0,0,0-.35.35V7.74a.35.35,0,0,0,.69,0V6.06A.35.35,0,0,0,3.49,5.71Z"/><path class="cls-47" d="M8.95,5.71a.35.35,0,0,0-.35.35V7.74a.35.35,0,0,0,.7,0V6.06A.35.35,0,0,0,8.95,5.71Z"/><path class="cls-47" d="M4.15,5.71V8.83a.52.52,0,0,0,.52.52h.56v.88a.35.35,0,0,0,.7,0V9.35h.59v.88a.35.35,0,0,0,.7,0V9.35h.56a.52.52,0,0,0,.52-.52V5.71Z"/><path class="cls-47" d="M7.23,3.59l.37-.69-.08,0-.37.7a2,2,0,0,0-.93-.22,2.07,2.07,0,0,0-.9.2L5,2.85l-.08,0,.36.67a2.06,2.06,0,0,0-1.09,1.8H8.28A2.07,2.07,0,0,0,7.23,3.59Zm-2.08,1a.2.2,0,1,1,.2-.2A.2.2,0,0,1,5.16,4.58Zm2.09,0a.2.2,0,0,1,0-.39.2.2,0,0,1,0,.39Z"/></g></g></svg>